<?xml version="1.0" encoding="UTF-8" standalone="no"?>
<!-- Created with Inkscape (http://www.inkscape.org/) -->

<svg
   xmlns:dc="http://purl.org/dc/elements/1.1/"
   xmlns:cc="http://creativecommons.org/ns#"
   xmlns:rdf="http://www.w3.org/1999/02/22-rdf-syntax-ns#"
   xmlns:svg="http://www.w3.org/2000/svg"
   xmlns="http://www.w3.org/2000/svg"
   xmlns:sodipodi="http://sodipodi.sourceforge.net/DTD/sodipodi-0.dtd"
   xmlns:inkscape="http://www.inkscape.org/namespaces/inkscape"
   width="210mm"
   height="297mm"
   viewBox="0 0 744.09448819 1052.3622047"
   id="svg4360"
   version="1.1"
   inkscape:version="0.91 r13725"
   sodipodi:docname="cm-logo3.svg"
   inkscape:export-filename="E:\Joel\Google Drive\Inner Loop Software\Logos\cm-logo3.png"
   inkscape:export-xdpi="37.534332"
   inkscape:export-ydpi="37.534332">
  <defs
     id="defs4362" />
  <sodipodi:namedview
     id="base"
     pagecolor="#ffffff"
     bordercolor="#666666"
     borderopacity="1.0"
     inkscape:pageopacity="0.0"
     inkscape:pageshadow="2"
     inkscape:zoom="0.7"
     inkscape:cx="315.18285"
     inkscape:cy="599.44721"
     inkscape:document-units="px"
     inkscape:current-layer="layer1"
     showgrid="false"
     showborder="false"
     inkscape:window-width="1920"
     inkscape:window-height="1018"
     inkscape:window-x="-8"
     inkscape:window-y="-8"
     inkscape:window-maximized="1" />
  <metadata
     id="metadata4365">
    <rdf:RDF>
      <cc:Work
         rdf:about="">
        <dc:format>image/svg+xml</dc:format>
        <dc:type
           rdf:resource="http://purl.org/dc/dcmitype/StillImage" />
        <dc:title></dc:title>
      </cc:Work>
    </rdf:RDF>
  </metadata>
  <g
     inkscape:label="Layer 1"
     inkscape:groupmode="layer"
     id="layer1">
    <g
       id="g4305"
       style="font-style:normal;font-weight:normal;font-size:180px;line-height:125%;font-family:sans-serif;letter-spacing:0px;word-spacing:0px;fill:#000000;fill-opacity:1;stroke:none;stroke-width:1px;stroke-linecap:butt;stroke-linejoin:miter;stroke-opacity:1"
       transform="translate(-140.88526,383.98926)">
      <path
         id="path4307"
         style="font-style:normal;font-variant:normal;font-weight:bold;font-stretch:normal;font-family:Aharoni;-inkscape-font-specification:'Aharoni Bold';fill:#646060;fill-opacity:1"
         d="m 27.53627,52.406849 q -15.292969,6.064453 -28.30078111,6.064453 -22.67578089,0 -40.60546889,-14.501953 -22.851562,-18.544922 -22.851562,-48.3398438 0,-29.8828122 22.851562,-48.4277342 17.929688,-14.501953 40.86914077,-14.501953 12.48046923,0 28.03710923,6.064453 l 0,37.353515 q -4.394531,-5.361328 -8.964844,-8.085937 -8.349609,-5.009766 -17.92968711,-5.009766 -12.12890589,0 -21.09374989,7.294922 -11.337891,9.228516 -11.337891,25.3125002 0,15.9960938 11.337891,25.2246098 8.964844,7.294921 21.09374989,7.294921 9.58007811,0 17.92968711,-5.009765 4.482422,-2.636719 8.964844,-8.085938 l 0,37.353516 z"
         inkscape:connector-curvature="0" />
      <path
         id="path4309"
         style="font-style:normal;font-variant:normal;font-weight:bold;font-stretch:normal;font-family:Aharoni;-inkscape-font-specification:'Aharoni Bold';fill:#646060;fill-opacity:1"
         d="m 139.50893,14.438099 q 0,16.962891 -11.16211,29.091797 -13.53516,14.765625 -37.880862,14.765625 -24.433594,0 -37.96875,-14.765625 -11.16211,-12.128906 -11.16211,-29.794922 0,-15.9082032 11.25,-28.212891 13.623047,-14.853515 38.759766,-14.853515 23.115236,0 36.914066,14.853515 11.25,12.1289065 11.25,28.916016 z m -29.97071,0 q 0,-7.9101563 -5.625,-13.3593751 -5.537106,-5.5371094 -13.447262,-5.5371094 -8.964844,0 -14.589844,6.6796875 -4.570313,5.3613282 -4.570313,12.216797 0,6.943359 4.570313,12.304687 5.625,6.679688 14.589844,6.679688 7.998047,0 13.535152,-5.449219 5.53711,-5.537109 5.53711,-13.535156 z"
         inkscape:connector-curvature="0" />
      <path
         id="path4311"
         style="font-style:normal;font-variant:normal;font-weight:bold;font-stretch:normal;font-family:Aharoni;-inkscape-font-specification:'Aharoni Bold';fill:#646060;fill-opacity:1"
         d="m 242.07729,55.219349 -28.82813,0 0,-41.308594 q 0,-10.8105467 -2.46094,-14.32617172 -3.60351,-5.18554688 -10.81054,-5.18554688 -6.5918,0 -11.07422,4.4824219 -4.04297,4.0429687 -4.04297,12.6562497 l 0,43.681641 -28.82813,0 0,-81.5625 28.82813,0 0,10.283203 q 5.00976,-5.800781 9.22851,-8.173828 6.85547,-3.867188 17.13868,-3.867188 13.18359,0 21.44531,7.119141 9.4043,8.085938 9.4043,24.2578125 l 0,51.9433595 z"
         inkscape:connector-curvature="0" />
      <path
         id="path4313"
         style="font-style:normal;font-variant:normal;font-weight:bold;font-stretch:normal;font-family:Aharoni;-inkscape-font-specification:'Aharoni Bold';fill:#646060;fill-opacity:1"
         d="m 323.37611,53.461536 q -8.96484,4.482422 -18.80859,4.482422 -22.32422,0 -35.41992,-15.117187 -10.54688,-12.216797 -10.54688,-28.300781 0,-16.1718755 10.54688,-28.300782 13.0957,-15.117187 35.41992,-15.117187 10.01953,0 18.80859,4.570312 l 0,24.52148466 q -7.64648,-5.36132816 -14.9414,-5.36132816 -8.61328,0 -14.23828,5.53710941 -5.625,5.53710939 -5.625,14.15039109 0,8.613281 5.625,14.15039 5.625,5.53711 14.23828,5.53711 7.20703,0 14.9414,-5.273438 l 0,24.521484 z"
         inkscape:connector-curvature="0" />
      <path
         id="path4315"
         style="font-style:normal;font-variant:normal;font-weight:bold;font-stretch:normal;font-family:Aharoni;-inkscape-font-specification:'Aharoni Bold';fill:#646060;fill-opacity:1"
         d="m 426.47182,19.711536 -60.64453,0 q 0,18.369141 17.7539,18.369141 9.05274,0 13.88672,-7.734375 l 27.86133,0 q -3.33984,11.074219 -9.84375,17.138672 -11.77734,10.986328 -31.55274,10.986328 -25.13671,0 -37.79296,-15.292969 -9.49219,-11.425781 -9.49219,-27.861328 0,-19.5117186 11.86523,-31.728515 11.86524,-12.216797 33.48633,-12.216797 26.63086,0 38.05664,19.3359372 6.41602,10.8984375 6.41602,25.3124998 l 0,3.691406 z M 399.57729,3.1880989 q -3.07618,-13.5351559 -16.43555,-13.5351559 -7.38281,0 -11.95313,4.3066403 -3.60351,3.4277344 -4.57031,9.2285156 l 32.95899,0 z"
         inkscape:connector-curvature="0" />
      <path
         id="path4317"
         style="font-style:normal;font-variant:normal;font-weight:bold;font-stretch:normal;font-family:Aharoni;-inkscape-font-specification:'Aharoni Bold';fill:#646060;fill-opacity:1"
         d="m 504.07924,0.28770828 q -6.06445,-2.90039058 -12.30469,-2.90039058 -14.23828,0 -18.45703,11.6015625 -1.58203,4.2187498 -1.58203,11.3378908 l 0,34.892578 -28.82813,0 0,-81.5625 28.82813,0 0,13.359375 q 4.57031,-7.119141 9.84375,-10.283203 7.11914,-4.21875 16.875,-4.21875 2.28516,0 5.625,0.263672 l 0,27.50976528 z"
         inkscape:connector-curvature="0" />
      <path
         id="path4319"
         style="font-style:normal;font-variant:normal;font-weight:bold;font-stretch:normal;font-family:Aharoni;-inkscape-font-specification:'Aharoni Bold';fill:#646060;fill-opacity:1"
         d="m 603.13197,55.219349 -28.82812,0 0,-41.308594 q 0,-10.8105467 -2.46094,-14.32617172 -3.60351,-5.18554688 -10.81055,-5.18554688 -6.59179,0 -11.07421,4.4824219 -4.04297,4.0429687 -4.04297,12.6562497 l 0,43.681641 -28.82813,0 0,-81.5625 28.82813,0 0,10.283203 q 5.00976,-5.800781 9.22851,-8.173828 6.85547,-3.867188 17.13867,-3.867188 13.1836,0 21.44532,7.119141 9.40429,8.085938 9.40429,24.2578125 l 0,51.9433595 z"
         inkscape:connector-curvature="0" />
      <path
         id="path4321"
         style="font-style:normal;font-variant:normal;font-weight:bold;font-stretch:normal;font-family:Aharoni;-inkscape-font-specification:'Aharoni Bold';fill:#646060;fill-opacity:1"
         d="m 653.4933,-57.720104 q 0,6.855469 -4.74609,11.601562 -4.65821,4.658203 -11.51367,4.658203 -6.76758,0 -11.51368,-4.746093 -4.6582,-4.746094 -4.6582,-11.513672 0,-6.767578 4.6582,-11.425781 4.7461,-4.746094 11.51368,-4.746094 6.76757,0 11.51367,4.746094 4.74609,4.658203 4.74609,11.425781 z m -1.8457,112.939453 -28.82813,0 0,-81.5625 28.82813,0 0,81.5625 z"
         inkscape:connector-curvature="0" />
      <path
         id="path4323"
         style="font-style:normal;font-variant:normal;font-weight:bold;font-stretch:normal;font-family:Aharoni;-inkscape-font-specification:'Aharoni Bold';fill:#646060;fill-opacity:1"
         d="m 757.46791,55.219349 -28.82812,0 0,-41.308594 q 0,-10.8105467 -2.46094,-14.32617172 -3.60352,-5.18554688 -10.81055,-5.18554688 -6.5918,0 -11.07422,4.4824219 -4.04297,4.0429687 -4.04297,12.6562497 l 0,43.681641 -28.82812,0 0,-81.5625 28.82812,0 0,10.283203 q 5.00977,-5.800781 9.22852,-8.173828 6.85547,-3.867188 17.13867,-3.867188 13.1836,0 21.44531,7.119141 9.4043,8.085938 9.4043,24.2578125 l 0,51.9433595 z"
         inkscape:connector-curvature="0" />
      <path
         id="path4325"
         style="font-style:normal;font-variant:normal;font-weight:bold;font-stretch:normal;font-family:Aharoni;-inkscape-font-specification:'Aharoni Bold';fill:#646060;fill-opacity:1"
         d="m 868.56166,49.594349 q 0,10.722656 -1.49414,17.314453 -2.37305,10.546875 -12.30469,18.896484 -12.56836,10.546875 -33.39843,10.546875 -21.79688,0 -34.7168,-11.513671 -8.61328,-7.646485 -10.98633,-15.996094 -0.26367,-0.878906 -0.70312,-3.691406 l 32.43164,0 q 1.40625,4.042968 3.77929,5.800781 3.86719,2.90039 9.84375,2.90039 10.01953,0 15.38086,-7.11914 3.33985,-4.482422 3.33985,-12.832031 l 0,-7.734375 q -5.18555,4.746093 -8.70118,6.679687 -7.29492,4.042969 -17.22656,4.042969 -12.48047,0 -22.32422,-6.416016 -10.10742,-6.591797 -14.50195,-18.017578 -2.98828,-7.734375 -2.98828,-16.787109 0,-20.0390628 12.74414,-32.607422 11.86523,-11.689453 28.56445,-11.689453 8.87696,0 15.82031,3.603515 4.13086,2.197266 8.61329,7.207032 l 0,-8.525391 28.82812,0 0,75.9375 z M 841.13979,14.174427 q 0,-7.8222656 -5.36133,-13.44726559 -5.36133,-5.62500001 -13.1836,-5.62500001 -8.70117,0 -14.23828,6.6796875 -4.39453,5.3613281 -4.39453,12.3925781 0,7.822266 5.36133,13.447266 5.44922,5.537109 13.27148,5.537109 7.73438,0 13.09571,-5.537109 5.44922,-5.625 5.44922,-13.447266 z"
         inkscape:connector-curvature="0" />
      <path
         inkscape:connector-curvature="0"
         id="path4327"
         style="font-style:normal;font-variant:normal;font-weight:bold;font-stretch:normal;font-family:Aharoni;-inkscape-font-specification:'Aharoni Bold';fill:#c6c6c6;fill-opacity:1"
         d="m 1134.5635,17.891468 -60.6445,0 q 0,18.369141 17.7539,18.369141 9.0527,0 13.8867,-7.734375 l 27.8613,0 q -3.3398,11.074219 -9.8437,17.138672 -11.7774,10.986328 -31.5528,10.986328 -25.1367,0 -37.7929,-15.292969 -9.4922,-11.425781 -9.4922,-27.861328 0,-19.5117199 11.8652,-31.728515 11.8653,-12.216797 33.4863,-12.216797 26.6309,0 38.0567,19.335936 6.416,10.89843733 6.416,25.312501 l 0,3.691406 z M 1107.669,1.3680296 q -3.0762,-13.5351556 -16.4356,-13.5351556 -7.3828,0 -11.9531,4.30664 -3.6035,3.4277344 -4.5703,9.2285156 l 32.959,0 z" />
    </g>
    <g
       style="display:inline"
       id="g4298"
       transform="translate(-190.38019,384.84097)">
      <path
         sodipodi:nodetypes="cccccccccccc"
         inkscape:connector-curvature="0"
         id="path4204"
         d="m 991.57115,-64.573382 -8.93862,51.427177 21.89677,68.364955 12.3926,0 29.0039,-69.082031 8.8769,69.082031 31.2012,0 -18.1055,-119.970703 -35.4897,0 -21.2876,63.98437488 -13.81,-63.80580388 z"
         style="font-style:normal;font-variant:normal;font-weight:bold;font-stretch:normal;font-size:180px;line-height:125%;font-family:Aharoni;-inkscape-font-specification:'Aharoni Bold';letter-spacing:0px;word-spacing:0px;fill:#c6c6c6;fill-opacity:1;stroke:none;stroke-width:1px;stroke-linecap:butt;stroke-linejoin:miter;stroke-opacity:1" />
      <path
         sodipodi:nodetypes="sccccs"
         inkscape:connector-curvature="0"
         id="rect4141"
         d="m 961.70088,-67.923269 c -17.61943,0.03056 -25.91293,2.915735 -25.91293,2.915735 l 16.54913,96.609567 c 7.24322,0 10.71455,0.02074 17.82894,0.02074 l 16.91992,-96.779018 c 0,0 -8.28281,-2.796679 -25.38506,-2.767024 z"
         style="fill:#f5b225;fill-opacity:1;stroke:none;stroke-width:3;stroke-linecap:round;stroke-linejoin:round;stroke-miterlimit:4;stroke-dasharray:none;stroke-opacity:1" />
      <path
         sodipodi:nodetypes="ssscssscs"
         id="path4198-3"
         style="font-style:normal;font-variant:normal;font-weight:bold;font-stretch:normal;font-size:180px;line-height:125%;font-family:Aharoni;-inkscape-font-specification:'Aharoni Bold';letter-spacing:0px;word-spacing:0px;fill:#f5b225;fill-opacity:1;stroke:none;stroke-width:1px;stroke-linecap:butt;stroke-linejoin:miter;stroke-opacity:1"
         d="m 977.28725,52.192699 c 0,4.570313 -1.58203,8.4375 -4.74609,11.601562 -3.10547,3.105469 -6.94336,4.658203 -11.51367,4.658203 -4.51172,0 -8.34961,-1.582031 -11.51368,-4.746093 -3.10547,-3.164063 -4.6582,-7.001953 -4.6582,-11.513672 0,-4.511719 1.55273,-8.320312 4.6582,-11.425781 3.16407,-3.164063 7.00196,-4.746094 11.51368,-4.746094 4.51171,0 8.3496,1.582031 11.51367,4.746094 3.16406,3.105469 4.74609,6.914062 4.74609,11.425781 z"
         inkscape:connector-curvature="0" />
    </g>
  </g>
</svg>
