<?xml version="1.0" encoding="UTF-8" standalone="no"?>
<!-- Created with Inkscape (http://www.inkscape.org/) -->

<svg
   xmlns:dc="http://purl.org/dc/elements/1.1/"
   xmlns:cc="http://creativecommons.org/ns#"
   xmlns:rdf="http://www.w3.org/1999/02/22-rdf-syntax-ns#"
   xmlns:svg="http://www.w3.org/2000/svg"
   xmlns="http://www.w3.org/2000/svg"
   xmlns:sodipodi="http://sodipodi.sourceforge.net/DTD/sodipodi-0.dtd"
   xmlns:inkscape="http://www.inkscape.org/namespaces/inkscape"
   width="72mm"
   height="41mm"
   viewBox="0 0 255.11796 145.2755"
   id="svg4149"
   version="1.1"
   inkscape:version="0.91 r13725"
   sodipodi:docname="me-logo.svg"
   inkscape:export-filename="C:\Users\robert\Google Drive\Inner Loop Software\Html\images\me-logo.png"
   inkscape:export-xdpi="37.534302"
   inkscape:export-ydpi="37.534302">
  <defs
     id="defs4151" />
  <sodipodi:namedview
     id="base"
     pagecolor="#ffffff"
     bordercolor="#666666"
     borderopacity="1.0"
     inkscape:pageopacity="0.0"
     inkscape:pageshadow="2"
     inkscape:zoom="5.7108117"
     inkscape:cx="88.412604"
     inkscape:cy="80.573312"
     inkscape:document-units="px"
     inkscape:current-layer="layer1"
     showgrid="false"
     inkscape:window-width="1920"
     inkscape:window-height="1003"
     inkscape:window-x="-9"
     inkscape:window-y="-9"
     inkscape:window-maximized="1" />
  <metadata
     id="metadata4154">
    <rdf:RDF>
      <cc:Work
         rdf:about="">
        <dc:format>image/svg+xml</dc:format>
        <dc:type
           rdf:resource="http://purl.org/dc/dcmitype/StillImage" />
        <dc:title />
      </cc:Work>
    </rdf:RDF>
  </metadata>
  <g
     inkscape:label="Layer 1"
     inkscape:groupmode="layer"
     id="layer1"
     transform="translate(0,-907.08662)">
    <path
       inkscape:connector-curvature="0"
       id="path4327"
       style="font-style:normal;font-variant:normal;font-weight:bold;font-stretch:normal;font-size:180px;line-height:125%;font-family:Aharoni;-inkscape-font-specification:'Aharoni Bold';letter-spacing:0px;word-spacing:0px;fill:#646060;fill-opacity:1;stroke:none;stroke-width:1px;stroke-linecap:butt;stroke-linejoin:miter;stroke-opacity:1"
       d="m 252.39753,996.99651 -60.6445,0 q 0,18.36909 17.7539,18.36909 9.0527,0 13.8867,-7.7343 l 27.8613,0 q -3.3398,11.0742 -9.8437,17.1386 -11.7774,10.9864 -31.5528,10.9864 -25.1367,0 -37.7929,-15.293 -9.4922,-11.4258 -9.4922,-27.86133 0,-19.51172 11.8652,-31.72851 11.8653,-12.2168 33.4863,-12.2168 26.6309,0 38.0567,19.33594 6.416,10.89844 6.416,25.3125 l 0,3.69141 z m -26.8945,-16.52344 q -3.0762,-13.53516 -16.4356,-13.53516 -7.3828,0 -11.9531,4.30664 -3.6035,3.42774 -4.5703,9.22852 l 32.959,0 z" />
    <path
       sodipodi:nodetypes="cccccccccccc"
       inkscape:connector-curvature="0"
       id="path4204"
       d="m 59.910229,915.38337 -8.9386,51.42717 21.8967,68.36496 12.3926,0 29.003901,-69.08203 8.8769,69.08203 31.2012,0 -18.1055,-119.97071 -35.4897,0 -21.287601,63.98438 -13.81,-63.8058 z"
       style="font-style:normal;font-variant:normal;font-weight:bold;font-stretch:normal;font-size:180px;line-height:125%;font-family:Aharoni;-inkscape-font-specification:'Aharoni Bold';letter-spacing:0px;word-spacing:0px;display:inline;fill:#c6c6c6;fill-opacity:1;stroke:none;stroke-width:1px;stroke-linecap:butt;stroke-linejoin:miter;stroke-opacity:1" />
    <path
       sodipodi:nodetypes="sccccs"
       inkscape:connector-curvature="0"
       id="rect4141"
       d="m 30.039929,912.03348 c -17.61941,0.0306 -25.9129098,2.91573 -25.9129098,2.91573 l 16.5491098,96.60959 c 7.2432,0 10.7146,0.021 17.829,0.021 l 16.9199,-96.77904 c 0,0 -8.2828,-2.79668 -25.3851,-2.76702 z"
       style="display:inline;fill:#f5b225;fill-opacity:1;stroke:none;stroke-width:3;stroke-linecap:round;stroke-linejoin:round;stroke-miterlimit:4;stroke-dasharray:none;stroke-opacity:1" />
    <path
       sodipodi:nodetypes="ssscssscs"
       id="path4198-3"
       style="font-style:normal;font-variant:normal;font-weight:bold;font-stretch:normal;font-size:180px;line-height:125%;font-family:Aharoni;-inkscape-font-specification:'Aharoni Bold';letter-spacing:0px;word-spacing:0px;display:inline;fill:#f5b225;fill-opacity:1;stroke:none;stroke-width:1px;stroke-linecap:butt;stroke-linejoin:miter;stroke-opacity:1"
       d="m 45.626329,1032.1494 c 0,4.5704 -1.582,8.4375 -4.7461,11.6016 -3.1055,3.1055 -6.9434,4.6582 -11.5137,4.6582 -4.5117,0 -8.3496,-1.582 -11.51365,-4.7461 -3.10547,-3.164 -4.6582,-7.0019 -4.6582,-11.5137 0,-4.5117 1.55273,-8.3203 4.6582,-11.4257 3.16405,-3.1641 7.00195,-4.7461 11.51365,-4.7461 4.5117,0 8.3496,1.582 11.5137,4.7461 3.1641,3.1054 4.7461,6.914 4.7461,11.4257 z"
       inkscape:connector-curvature="0" />
    <path
       style="fill:#646060;fill-opacity:1"
       d="m 72.865998,125.67882 c -2.28737,-4.01734 -20.46936,-63.769668 -20.46936,-67.269423 0,-3.709084 5.100434,-35.460378 7.33048,-45.633806 0.94233,-4.2988956 5.012921,-4.8318996 6.15893,-0.806452 0.441959,1.552419 3.537427,15.707476 6.878816,31.455681 3.341389,15.748204 6.567116,28.086914 7.168281,27.419354 0.601166,-0.667559 5.598791,-14.822616 11.105835,-31.45568 l 10.01281,-30.2419357 17.60791,0 c 10.14986,0 17.60791,0.6545342 17.60791,1.5453077 0,2.256552 15.98217,108.282084 16.96831,112.567594 0.82098,3.56777 0.57588,3.62903 -14.51823,3.62903 -8.44432,0 -15.35331,-0.36733 -15.35331,-0.81629 0,-1.90052 -8.22736,-64.650013 -8.66918,-66.11919 -0.56444,-1.876945 -2.90326,3.291158 -18.058023,39.902893 l -11.176023,26.999667 -5.953198,0.0165 c -3.27426,0.009 -6.263141,-0.52789 -6.641958,-1.19321 z"
       id="path4137"
       inkscape:connector-curvature="0"
       transform="translate(0,907.08661)" />
    <path
       style="fill:#646060;fill-opacity:1"
       d="M 58.857621,84.162842 C 54.59914,70.866287 51.112674,59.846493 51.109919,59.67441 51.107163,59.502326 53.09681,47.87694 55.531357,33.840219 l 4.426448,-25.5213139 2.817615,-4.527e-4 2.817615,-4.527e-4 0.202843,0.9193089 C 67.952049,19.009339 76.675186,59.59715 76.66122,59.792572 76.616683,60.415813 74.633007,51.794585 72.130074,40.099822 69.560107,28.091849 66.980849,16.286269 66.339187,13.594223 65.532685,10.210599 64.817842,9.2810852 63.022168,9.2810852 c -1.759516,0 -2.735566,1.1169908 -3.424942,3.9195028 -0.83797,3.40659 -3.622656,19.384417 -5.405297,31.014235 -2.066623,13.482492 -2.100838,14.109366 -0.998729,18.298625 2.130326,8.097647 8.548026,29.770539 12.564825,42.432032 0.529227,1.6682 0.935244,3.11405 0.902259,3.213 -0.03298,0.099 -3.544182,-10.699082 -7.802663,-23.995638 z"
       id="path4138"
       inkscape:connector-curvature="0"
       transform="translate(0,907.08661)" />
    <path
       style="fill:#646060;fill-opacity:1"
       d="m 105.96703,9.06231 c 2.76887,-0.02709 7.29975,-0.02709 10.06862,0 2.76887,0.02709 0.50343,0.049255 -5.03431,0.049255 -5.53774,0 -7.80318,-0.022165 -5.03431,-0.049255 z"
       id="path4140"
       inkscape:connector-curvature="0"
       transform="translate(0,907.08661)" />
    <path
       style="fill:#646060;fill-opacity:1"
       d=""
       id="path4142"
       inkscape:connector-curvature="0"
       transform="translate(0,907.08661)" />
    <path
       style="fill:#646060;fill-opacity:1"
       d="m 70.588534,120.77915 c -1.279932,-4.02035 -2.319587,-7.38852 -2.310344,-7.48483 0.0092,-0.0963 0.787516,2.07063 1.729495,4.81543 2.419138,7.04902 2.619923,7.53152 3.299189,7.92823 1.040888,0.60792 3.002252,0.81449 7.795035,0.82098 2.736558,0.004 4.508991,0.0717 4.508991,0.17298 0,0.0918 -0.09145,0.36757 -0.203213,0.61287 l -0.203214,0.44601 -6.144395,-9.7e-4 -6.144396,-9.8e-4 -2.327148,-7.30972 z"
       id="path4144"
       inkscape:connector-curvature="0"
       transform="translate(0,907.08661)" />
    <path
       style="fill:#646060;fill-opacity:1"
       d="m 123.18072,127.87193 c -0.0857,-0.27966 -8.69028,-67.550897 -8.68282,-67.882934 0.0186,-0.82977 0.25956,0.602769 1.04398,6.207161 1.72471,12.322637 5.39954,40.363543 7.06655,53.921663 l 0.75286,6.12308 0.6054,0.12697 c 2.44479,0.51275 23.37597,0.76747 26.60301,0.32374 2.92929,-0.40279 3.20705,-0.73608 2.74941,-3.29914 -1.94077,-10.86939 -16.36517,-106.417715 -16.96223,-112.359027 -0.0694,-0.690204 -0.54459,-0.904526 -2.70804,-1.2212832 -3.48491,-0.510236 -7.25655,-0.6520413 -19.78603,-0.7439113 L 101.05226,8.9743176 94.227018,29.527603 c -6.430427,19.36437 -9.564351,28.585581 -12.129973,35.691052 -2.86739,7.941215 -0.407809,0.303738 8.737858,-27.13275 l 9.952007,-29.8554585 17.69237,-0.044607 17.69236,-0.044607 0.10452,0.6574796 c 0.0575,0.3616138 4.08689,27.044511 8.95422,59.295328 4.86734,32.25082 8.8986,58.94361 8.95836,59.31731 l 0.10865,0.67947 -15.5248,0 c -12.26732,0 -15.53887,-0.0459 -15.59187,-0.21889 z"
       id="path4146"
       inkscape:connector-curvature="0"
       transform="translate(0,907.08661)" />
  </g>
</svg>
